<svg xmlns="http://www.w3.org/2000/svg" viewBox="0 0 64 80" x="0px" y="0px"><title>a</title><g data-name="15 Wedding Tent"><path d="M57.707,21.293l-2.734-2.734c-.292-8.029-8.307-11.31-14.785-13.947C36.885,3.267,33.765,2,32.857.485a.832.832,0,0,0-.113-.137.969.969,0,0,0-1.488,0,.832.832,0,0,0-.113.137C30.235,2,27.115,3.267,23.811,4.612,17.334,7.249,9.319,10.53,9.027,18.559L6.293,21.293A1,1,0,0,0,6,22V63a1,1,0,0,0,1,1h4a1,1,0,0,0,1-1V35.1A13.792,13.792,0,0,0,19,37a14.014,14.014,0,0,0,13-8.833A14.012,14.012,0,0,0,45,37a13.792,13.792,0,0,0,7-1.9V63a1,1,0,0,0,1,1h4a1,1,0,0,0,1-1V22A1,1,0,0,0,57.707,21.293ZM52.949,18H43.942c-.407-3.856-3.128-6.337-5.769-8.74-1.911-1.737-3.741-3.408-4.623-5.529a41.39,41.39,0,0,0,5.885,2.733C45.482,8.926,52.3,11.7,52.949,18ZM41.924,18H22.076c.421-3,2.7-5.077,5.1-7.26A20.547,20.547,0,0,0,32,5.166a20.547,20.547,0,0,0,4.827,5.574C39.228,12.923,41.5,15,41.924,18ZM24.565,6.464A41.39,41.39,0,0,0,30.45,3.731c-.882,2.121-2.712,3.792-4.623,5.529-2.642,2.4-5.362,4.884-5.769,8.74H11.051C11.7,11.7,18.518,8.926,24.565,6.464ZM19,35a11.857,11.857,0,0,1-7-2.266V24H29.9A11.953,11.953,0,0,1,19,31a1,1,0,0,0,0,2,13.948,13.948,0,0,0,11.111-5.49A12.012,12.012,0,0,1,19,35Zm26,0a12.011,12.011,0,0,1-11.111-7.49A13.947,13.947,0,0,0,45,33a1,1,0,0,0,0-2,11.956,11.956,0,0,1-10.9-7H52v8.734A11.857,11.857,0,0,1,45,35ZM56,62H54V23a1,1,0,0,0-1-1H11a1,1,0,0,0-1,1V62H8V22.414L10.414,20H53.586L56,22.414Z"/><path d="M48.29,30.29a1.014,1.014,0,0,0,0,1.42,1,1,0,1,0,0-1.42Z"/><path d="M14.29,30.29A1,1,0,0,0,15,32a1.007,1.007,0,0,0,1-1,1.033,1.033,0,0,0-.29-.71A1.047,1.047,0,0,0,14.29,30.29Z"/><path d="M38,49H26a1,1,0,0,0-1,1V60a1,1,0,0,0,1,1h5v1H29a1,1,0,0,0,0,2h6a1,1,0,0,0,0-2H33V61h5a1,1,0,0,0,1-1V50A1,1,0,0,0,38,49ZM37,59H27V55h3a1,1,0,0,0,0-2H27V51H37Z"/><path d="M33,55a1,1,0,1,0-1-1,1.028,1.028,0,0,0,.29.71A1.05,1.05,0,0,0,33,55Z"/><path d="M49,48a1,1,0,0,0-1,1v6H42a1,1,0,0,0-1,1v7a1,1,0,0,0,2,0V62h5v1a1,1,0,0,0,2,0V49A1,1,0,0,0,49,48ZM43,60V57h5v3Z"/><path d="M22,55H16V49a1,1,0,0,0-2,0V63a1,1,0,0,0,2,0V62h5v1a1,1,0,0,0,2,0V56A1,1,0,0,0,22,55Zm-6,2h5v3H16Z"/></g><text x="0" y="79" fill="#000000" font-size="5px" font-weight="bold" font-family="'Helvetica Neue', Helvetica, Arial-Unicode, Arial, Sans-serif">Created by Berkah Icon</text><text x="0" y="84" fill="#000000" font-size="5px" font-weight="bold" font-family="'Helvetica Neue', Helvetica, Arial-Unicode, Arial, Sans-serif">from the Noun Project</text></svg>