<svg xmlns="http://www.w3.org/2000/svg" xmlns:xlink="http://www.w3.org/1999/xlink" version="1.1" x="0px" y="0px" viewBox="0 0 100 125" enable-background="new 0 0 100 100" xml:space="preserve"><g><path d="M58.905,52.621H58.73c-0.245,0-0.483,0.037-0.71,0.105c-0.312-1.021-1.265-1.768-2.388-1.768h-0.174   c-0.238,0-0.472,0.037-0.694,0.107c-0.295-1.049-1.261-1.82-2.402-1.82h-0.173c-0.207,0-0.408,0.026-0.603,0.075v-4.174   c0-1.376-1.12-2.496-2.496-2.496h-0.173c-1.376,0-2.496,1.12-2.496,2.496v11.145l-1.039-0.661   c-0.948-0.866-2.529-0.837-3.445,0.079l-0.125,0.124c-0.971,0.972-0.971,2.554-0.056,3.466l4.525,5.426   c0.413,0.491,1.019,0.773,1.66,0.773h9.062c1.119,0,2.043-0.854,2.155-1.968l2.208-8.172c0.021-0.079,0.032-0.162,0.032-0.244   C61.399,53.74,60.281,52.621,58.905,52.621z M57.371,62.959c-0.049,0.117-0.075,0.244-0.075,0.375c0,0.16-0.131,0.291-0.292,0.291   h-9.062c-0.118,0-0.191-0.066-0.223-0.103l-4.579-5.484c-0.242-0.242-0.242-0.636-0.002-0.878l0.124-0.122   c0.117-0.117,0.272-0.183,0.438-0.183s0.321,0.064,0.438,0.182c0.049,0.048,0.102,0.092,0.16,0.128l2.558,1.626   c0.288,0.183,0.653,0.195,0.953,0.031c0.3-0.165,0.486-0.479,0.486-0.822V45.148c0-0.342,0.279-0.621,0.621-0.621h0.173   c0.343,0,0.621,0.278,0.621,0.621v6.355c0,0.489,0.377,0.896,0.866,0.935c0.504,0.042,0.924-0.309,0.998-0.793   c0.045-0.298,0.309-0.523,0.613-0.523h0.173c0.343,0,0.62,0.279,0.62,0.62v1.571c0,0.49,0.378,0.897,0.867,0.935   c0.498,0.042,0.924-0.309,0.997-0.793c0.051-0.33,0.337-0.619,0.612-0.619h0.174c0.343,0,0.621,0.278,0.621,0.62v1.422   c0,0.49,0.377,0.897,0.866,0.935c0.512,0.036,0.924-0.309,0.998-0.792c0.046-0.298,0.31-0.523,0.612-0.523h0.175   c0.309,0,0.565,0.228,0.612,0.523L57.371,62.959z"/><path d="M44.421,44.176c0-0.518-0.419-0.938-0.938-0.938h-3.046c-0.518,0-0.938,0.419-0.938,0.938c0,0.518,0.42,0.938,0.938,0.938   h3.046C44.002,45.113,44.421,44.693,44.421,44.176z"/><path d="M49.037,40.421c0.518,0,0.938-0.42,0.938-0.938v-3.046c0-0.518-0.42-0.938-0.938-0.938c-0.519,0-0.938,0.42-0.938,0.938   v3.046C48.1,40.001,48.519,40.421,49.037,40.421z"/><path d="M44.981,41.745c0.183,0.183,0.423,0.275,0.663,0.275c0.239,0,0.479-0.092,0.662-0.275c0.184-0.183,0.275-0.423,0.275-0.663   s-0.092-0.48-0.275-0.663l-2.153-2.153c-0.366-0.366-0.959-0.366-1.325,0c-0.184,0.183-0.275,0.423-0.275,0.663   s0.092,0.479,0.275,0.663L44.981,41.745z"/><path d="M53.575,44.176c0,0.518,0.419,0.938,0.938,0.938h3.046c0.519,0,0.938-0.42,0.938-0.938c0-0.518-0.419-0.938-0.938-0.938   h-3.046C53.994,43.238,53.575,43.658,53.575,44.176z"/><path d="M52.352,42.019c0.24,0,0.479-0.091,0.662-0.274l2.155-2.154c0.366-0.366,0.366-0.96,0-1.326s-0.959-0.366-1.325,0   l-2.154,2.153c-0.366,0.366-0.366,0.959-0.001,1.326C51.871,41.927,52.112,42.019,52.352,42.019z"/></g><text x="0" y="115" fill="#000000" font-size="5px" font-weight="bold" font-family="'Helvetica Neue', Helvetica, Arial-Unicode, Arial, Sans-serif">Created by Lil' Seal</text><text x="0" y="120" fill="#000000" font-size="5px" font-weight="bold" font-family="'Helvetica Neue', Helvetica, Arial-Unicode, Arial, Sans-serif">from the Noun Project</text></svg>